HIERARCHY
ROOT Hips
{
	OFFSET 0.000000 0.000000 0.000000
	CHANNELS 6 Xposition Yposition Zposition Xrotation Yrotation Zrotation
	JOINT LeftUpLeg_virtual
	{
		OFFSET 0.000000 0.000000 0.000000
		CHANNELS 3 Xrotation Yrotation Zrotation
		JOINT LeftUpLeg
		{
			OFFSET 11.394100 -6.187798 -0.413800
			CHANNELS 3 Xrotation Yrotation Zrotation
			JOINT LeftLeg
			{
				OFFSET 0.430247 -32.302673 3.732800
				CHANNELS 3 Xrotation Yrotation Zrotation
				JOINT LeftFoot
				{
					OFFSET -0.430247 -48.264931 -6.423300
					CHANNELS 3 Xrotation Yrotation Zrotation
					JOINT LeftToeBase
					{
						OFFSET 4.230900 -16.068199 23.438400
						CHANNELS 3 Xrotation Yrotation Zrotation
						JOINT LeftToe_End
						{
							OFFSET 4.510700 0.695400 19.974600
							CHANNELS 3 Xrotation Yrotation Zrotation
							End Site
							{
								OFFSET 0 0 0
							}
						}
					}
				}
			}
		}
	}
	JOINT RightUpLeg_virtual
	{
		OFFSET 0.000000 0.000000 0.000000
		CHANNELS 3 Xrotation Yrotation Zrotation
		JOINT RightUpLeg
		{
			OFFSET -11.333700 -6.187798 -0.413800
			CHANNELS 3 Xrotation Yrotation Zrotation
			JOINT RightLeg
			{
				OFFSET -0.430392 -32.302628 3.733000
				CHANNELS 3 Xrotation Yrotation Zrotation
				JOINT RightFoot
				{
					OFFSET 0.430392 -48.264973 -6.423500
					CHANNELS 3 Xrotation Yrotation Zrotation
					JOINT RightToeBase
					{
						OFFSET -4.230900 -16.068199 23.438400
						CHANNELS 3 Xrotation Yrotation Zrotation
						JOINT RightToe_End
						{
							OFFSET -4.510700 0.695400 19.974600
							CHANNELS 3 Xrotation Yrotation Zrotation
							End Site
							{
								OFFSET 0 0 0
							}
						}
					}
				}
			}
		}
	}
	JOINT Spine_virtual
	{
		OFFSET 0.000000 0.000000 0.000000
		CHANNELS 3 Xrotation Yrotation Zrotation
		JOINT Spine
		{
			OFFSET -0.002400 12.777504 0.315300
			CHANNELS 3 Xrotation Yrotation Zrotation
			JOINT Spine1
			{
				OFFSET -0.002067 5.816869 0.032633
				CHANNELS 3 Xrotation Yrotation Zrotation
				JOINT Spine1_split
				{
					OFFSET -0.002067 5.816869 0.032633
					CHANNELS 3 Xrotation Yrotation Zrotation
					JOINT Spine2
					{
						OFFSET -0.002067 5.816869 0.032633
						CHANNELS 3 Xrotation Yrotation Zrotation
						JOINT Neck_virtual
						{
							OFFSET 0.000000 0.000000 0.000000
							CHANNELS 3 Xrotation Yrotation Zrotation
							JOINT Neck
							{
								OFFSET -0.003700 21.199493 -0.826900
								CHANNELS 3 Xrotation Yrotation Zrotation
								JOINT Head
								{
									OFFSET 0.000000 20.442200 4.834800
									CHANNELS 3 Xrotation Yrotation Zrotation
									JOINT HeadTop_End
									{
										OFFSET 0.000000 34.668396 4.968400
										CHANNELS 3 Xrotation Yrotation Zrotation
										End Site
										{
											OFFSET 0 0 0
										}
									}
								}
							}
						}
						JOINT LeftShoulder_virtual
						{
							OFFSET 0.000000 0.000000 0.000000
							CHANNELS 3 Xrotation Yrotation Zrotation
							JOINT LeftShoulder
							{
								OFFSET 3.288150 8.794197 -1.372250
								CHANNELS 3 Xrotation Yrotation Zrotation
								JOINT LeftShoulder_split
								{
									OFFSET 3.288150 8.794197 -1.372250
									CHANNELS 3 Xrotation Yrotation Zrotation
									JOINT LeftArm
									{
										OFFSET 11.953299 -2.279007 -0.146200
										CHANNELS 3 Xrotation Yrotation Zrotation
										JOINT LeftForeArm
										{
											OFFSET 18.448900 0.000000 0.000000
											CHANNELS 3 Xrotation Yrotation Zrotation
											JOINT LeftHand
											{
												OFFSET 29.527798 0.000000 0.000000
												CHANNELS 3 Xrotation Yrotation Zrotation
												End Site
												{
													OFFSET 0 0 0
												}
											}
										}
									}
								}
							}
						}
						JOINT RightShoulder_virtual
						{
							OFFSET 0.000000 0.000000 0.000000
							CHANNELS 3 Xrotation Yrotation Zrotation
							JOINT RightShoulder
							{
								OFFSET -3.249400 8.794197 -1.372250
								CHANNELS 3 Xrotation Yrotation Zrotation
								JOINT RightShoulder_split
								{
									OFFSET -3.249400 8.794197 -1.372250
									CHANNELS 3 Xrotation Yrotation Zrotation
									JOINT RightArm
									{
										OFFSET -11.953299 -2.279007 -0.146200
										CHANNELS 3 Xrotation Yrotation Zrotation
										JOINT RightForeArm
										{
											OFFSET -18.448900 0.000000 0.000000
											CHANNELS 3 Xrotation Yrotation Zrotation
											JOINT RightHand
											{
												OFFSET -29.527802 0.000000 0.000000
												CHANNELS 3 Xrotation Yrotation Zrotation
												End Site
												{
													OFFSET 0 0 0
												}
											}
										}
									}
								}
							}
						}
					}
				}
			}
		}
	}
}
MOTION
Frames: 4
Frame Time: 0.03333333
1.447236 81.491837 -2.913410 0.000000 0.000000 0.000000 -5.151387 -48.709446 -0.131270 -44.485961 4.536894 20.641323 61.570713 -4.393250 4.351490 -13.305008 -8.545598 -14.531154 -4.131496 -0.017382 1.918384 0.000000 0.000000 0.000000 -5.761660 -47.196460 0.631619 -21.323454 -7.991484 -27.872967 60.626733 -0.138336 -3.972283 -25.823668 -9.463695 24.447506 0.068039 0.543547 0.852996 0.000000 0.000000 0.000000 -5.012488 -44.649046 0.836873 11.441253 7.877956 -1.323043 1.606649 1.453776 -0.770922 0.615788 -0.200307 0.452059 0.000000 0.000000 0.000000 2.660592 1.036393 -0.607329 -1.664238 11.220530 4.203164 6.821596 18.061421 -4.603287 0.000000 0.000000 0.000000 2.891239 0.856089 -0.675899 1.021120 2.071783 -4.738848 -0.194649 -0.528970 -1.375178 -51.429535 0.496706 -49.560945 -173.942515 -74.350898 -169.957673 0.000000 0.000000 0.000000 2.836393 0.964339 -0.748041 3.201937 12.172800 -6.504344 -2.266177 -1.397281 0.840327 -54.213083 27.115240 85.273218 -177.057723 71.758391 175.437316 0.000000 0.000000 0.000000 
1.526733 81.667679 -2.781023 0.000000 0.000000 0.000000 -4.859088 -48.570425 0.173642 -44.024691 4.481742 20.572393 61.632485 -4.748489 4.413976 -12.865996 -8.402207 -14.534217 -4.051867 -0.031672 1.811511 0.000000 0.000000 0.000000 -5.735685 -47.132096 0.790453 -20.995447 -8.351271 -27.849789 60.415018 -0.420055 -3.877234 -26.131551 -9.877224 24.161639 0.496738 0.533769 0.615343 0.000000 0.000000 0.000000 -4.883884 -44.548758 0.789967 11.359249 7.919168 -1.482112 1.527571 1.387023 -0.725355 0.667691 0.442424 0.763181 0.000000 0.000000 0.000000 2.468590 1.040302 -0.584088 -1.800047 11.468539 4.103126 6.487276 18.316942 -4.582094 0.000000 0.000000 0.000000 2.880249 0.835729 -0.578418 1.058078 1.510510 -4.977742 0.434150 -0.719351 -0.714577 -52.043466 1.809189 -49.835365 -178.946844 -74.742664 -175.047039 0.000000 0.000000 0.000000 2.802771 0.945006 -0.680856 3.142478 12.412728 -6.457777 -2.230575 -1.683423 0.509897 -54.257360 27.174572 84.796846 -177.407689 71.242288 175.850597 0.000000 0.000000 0.000000 
1.586355 81.941200 -2.721825 0.000000 0.000000 0.000000 -4.578288 -48.487544 0.493830 -43.361432 4.555412 20.672088 61.487719 -5.600373 4.468495 -12.593904 -8.352680 -14.638198 -4.020031 -0.068441 1.512796 0.000000 0.000000 0.000000 -5.598339 -47.186847 0.960317 -20.538778 -8.633132 -27.658738 59.766840 -0.663047 -3.847913 -26.642360 -10.418720 23.461828 0.380579 0.565122 0.291576 0.000000 0.000000 0.000000 -4.537366 -44.839608 0.925773 11.175460 8.049037 -1.733744 1.452940 1.362871 -0.739799 0.426158 0.446490 0.811385 0.000000 0.000000 0.000000 2.257971 1.134445 -0.625618 -1.829977 11.900196 4.037627 6.324713 18.819381 -4.187967 0.000000 0.000000 0.000000 2.904556 0.915017 -0.518783 0.977591 0.683516 -5.146921 1.003206 0.235548 0.464487 -53.336107 4.151356 -49.410330 177.059609 -73.547846 -179.278778 0.000000 0.000000 0.000000 2.662631 1.036291 -0.653317 3.150050 12.638898 -5.960451 -2.354973 -2.057955 0.184232 -54.524109 27.987523 84.026292 -178.228964 70.479001 176.750269 0.000000 0.000000 0.000000 
1.681306 82.262718 -2.668766 0.000000 0.000000 0.000000 -4.309324 -48.738492 0.743602 -42.474546 4.987796 20.965433 61.086937 -6.669221 4.413645 -12.694479 -8.163209 -14.698622 -4.073450 -0.137394 1.120897 0.000000 0.000000 0.000000 -5.288019 -47.691075 1.149314 -20.359343 -8.730656 -27.387372 58.810599 -0.741279 -3.891039 -26.901707 -10.878923 22.391792 -0.296417 0.598423 0.094334 0.000000 0.000000 0.000000 -3.992731 -45.767110 1.304719 10.841608 8.230861 -2.006075 1.386414 1.410362 -0.819678 0.133181 0.092701 0.722136 0.000000 0.000000 0.000000 2.051214 1.313455 -0.712552 -1.779048 12.394226 4.021448 6.402561 19.779504 -3.650932 0.000000 0.000000 0.000000 2.836352 1.091248 -0.555433 0.875917 -0.047884 -5.049380 1.525910 1.698598 1.551632 -54.426557 6.505098 -48.559216 176.156398 -71.689549 179.311686 0.000000 0.000000 0.000000 2.466603 1.218103 -0.717646 3.175303 12.798165 -5.069893 -2.423180 -2.085479 -0.107489 -54.994358 29.584425 83.203192 -179.071810 69.649160 177.689366 0.000000 0.000000 0.000000 
